<svg version="1.2" xmlns="http://www.w3.org/2000/svg" viewBox="0 0 144 144" width="144" height="144"><style>.a{fill:#fecbaf}.b{fill:#7d6558}</style><path fill-rule="evenodd" class="a" d="m144 0v144h-144v-144z"/><path class="b" d="m20 108l15.4-64.3q2.2-0.6 4.7-1.4 2.5-0.9 5.6-1.5 3.2-0.8 7-1.2 4-0.5 9.1-0.5 6.2 0 10.1 1.6 4.1 1.5 7.5 4.6 4.7-2.7 9.3-4.4 4.7-1.8 11-1.8 6 0 10.2 1.7 4.4 1.5 7.2 4.6 2.8 3 4.1 7.2 1.3 4.1 1.3 9.1 0 2.3-0.4 4.8-0.3 2.6-0.9 5.1l-8.7 36.4h-19.1l8.5-35.6q0.4-1.8 0.7-4 0.6-2.3 0.6-4.4 0-3.6-1.7-6.2-1.7-2.7-6.5-2.7-2.7 0-5.2 1.1-2.4 0.9-4.3 1.9 0.3 1 0.3 1.9 0 0.9 0 1.7 0 2.3-0.4 4.8-0.3 2.6-0.9 5.1l-8.7 36.4h-19.1l8.4-35.6q0.4-1.8 0.8-4 0.5-2.3 0.5-4.4 0-3.6-1.6-6.2-1.7-2.7-6.6-2.7-2 0-3.4 0.3-1.4 0.1-3.4 0.5l-12.4 52.1z"/></svg>